<svg width="800" height="549" viewBox="0 0 800 549" fill="none" xmlns="http://www.w3.org/2000/svg">
<path fill-rule="evenodd" clip-rule="evenodd" d="M222.8 52.5118C197.942 52.5118 177.79 72.6635 177.79 97.5219V457.603C177.79 482.461 197.942 502.613 222.8 502.613H582.881C607.739 502.613 627.891 482.461 627.891 457.603V97.5218C627.891 72.6635 607.739 52.5118 582.881 52.5118H222.8ZM252.807 90.0202C232.091 90.0202 215.298 106.813 215.298 127.529V427.596C215.298 448.311 232.091 465.104 252.807 465.104H552.874C573.589 465.104 590.382 448.311 590.382 427.596V127.529C590.382 106.813 573.589 90.0202 552.874 90.0202H252.807Z" fill="white"/>
<path d="M590.382 343.884V444.266C590.382 455.775 581.053 465.104 569.544 465.104H263.941C264.701 461.315 266.575 457.628 269.744 454.482L471.096 254.625C479.221 246.56 492.33 246.56 500.455 254.625L590.382 343.884Z" fill="white"/>
<path d="M358.997 184.958C358.997 213.729 335.673 237.053 306.902 237.053C278.131 237.053 254.807 213.729 254.807 184.958C254.807 156.187 278.131 132.863 306.902 132.863C335.673 132.863 358.997 156.187 358.997 184.958Z" fill="white"/>
<path d="M154.986 0C168.402 0 175.11 3.30396 175.11 9.91189C175.11 16.5198 167.601 23.7285 152.583 31.5378C137.565 39.147 127.653 47.6572 122.847 57.0684C118.042 66.4797 115.639 84.9018 115.639 112.335L116.84 142.371C117.241 152.383 117.441 162.395 117.441 172.407C117.441 212.655 108.53 240.188 90.7088 255.006C85.903 259.011 80.3964 262.815 74.189 266.42C68.1818 269.824 65.1782 271.826 65.1782 272.427C64.9779 274.029 67.2807 276.131 72.0865 278.734C88.1057 287.545 99.5194 298.959 106.328 312.975C113.336 326.992 116.84 351.021 116.84 385.062L115.639 415.098C115.238 425.11 115.038 438.726 115.038 455.947C115.038 473.368 118.042 486.383 124.049 494.994C130.256 503.804 139.868 511.513 152.883 518.121C165.899 524.93 172.407 532.138 172.407 539.747C172.407 545.554 164.397 548.458 148.378 548.458C132.559 548.458 118.042 545.855 104.826 540.648C91.6099 535.442 81.3976 528.133 74.189 518.722C61.7741 502.703 55.5666 472.467 55.5666 428.013L57.3688 359.832C57.3688 337.805 54.3652 322.387 48.358 313.576C42.551 304.565 33.0396 297.357 19.8238 291.95C6.60793 286.343 0 279.035 0 270.024C0 267.22 7.20865 262.215 21.6259 255.006C36.2435 247.797 45.855 239.187 50.4605 229.175C55.2663 219.163 57.6692 197.637 57.6692 164.597L56.4677 111.133C56.4677 90.1081 58.2699 72.7873 61.8742 59.171C72.2867 19.7237 103.024 0 154.085 0H154.986Z" fill="white"/>
<path d="M645.014 548.458C631.598 548.458 624.89 545.154 624.89 538.546C624.89 531.938 632.399 524.729 647.417 516.92C662.435 509.311 672.347 500.801 677.153 491.389C681.958 481.978 684.361 463.556 684.361 436.123L683.16 406.087C682.759 396.075 682.559 386.063 682.559 376.051C682.559 335.803 691.47 308.27 709.291 293.452C714.097 289.447 719.604 285.643 725.811 282.038C731.818 278.634 734.822 276.632 734.822 276.031C735.022 274.429 732.719 272.327 727.914 269.724C711.894 260.913 700.481 249.499 693.672 235.482C686.664 221.466 683.16 197.437 683.16 163.396L684.361 133.36C684.762 123.348 684.962 109.732 684.962 92.511C684.962 75.0901 681.958 62.0745 675.951 53.4641C669.744 44.6536 660.132 36.9443 647.117 30.3364C634.101 23.5282 627.593 16.3196 627.593 8.71046C627.593 2.9035 635.603 1.43721e-05 651.622 1.29716e-05C667.441 1.15887e-05 681.958 2.60313 695.174 7.80938C708.39 13.0156 718.602 20.3244 725.811 29.7357C738.226 45.7549 744.433 75.9911 744.433 120.444L742.631 188.626C742.631 210.653 745.635 226.071 751.642 234.882C757.449 243.893 766.96 251.101 780.176 256.508C793.392 262.114 800 269.423 800 278.434C800 281.237 792.791 286.243 778.374 293.452C763.757 300.661 754.145 309.271 749.539 319.283C744.734 329.295 742.331 350.821 742.331 383.86L743.532 437.325C743.532 458.35 741.73 475.671 738.126 489.287C727.713 528.734 696.976 548.458 645.915 548.458H645.014Z" fill="white"/>
</svg>
